<?xml version="1.0" encoding="UTF-8" standalone="no"?>
<!-- Created with Inkscape (http://www.inkscape.org/) -->

<svg
   width="249.92145mm"
   height="101.93239mm"
   viewBox="0 0 249.92145 101.93239"
   version="1.1"
   id="svg1"
   xml:space="preserve"
   inkscape:version="1.3 (0e150ed6c4, 2023-07-21)"
   sodipodi:docname="logo_pulso_full.svg"
   xmlns:inkscape="http://www.inkscape.org/namespaces/inkscape"
   xmlns:sodipodi="http://sodipodi.sourceforge.net/DTD/sodipodi-0.dtd"
   xmlns="http://www.w3.org/2000/svg"
   xmlns:svg="http://www.w3.org/2000/svg"><sodipodi:namedview
     id="namedview1"
     pagecolor="#ffffff"
     bordercolor="#999999"
     borderopacity="1"
     inkscape:showpageshadow="2"
     inkscape:pageopacity="0"
     inkscape:pagecheckerboard="0"
     inkscape:deskcolor="#d1d1d1"
     inkscape:document-units="mm"
     inkscape:zoom="0.70710678"
     inkscape:cx="323.1478"
     inkscape:cy="144.95689"
     inkscape:window-width="2560"
     inkscape:window-height="1406"
     inkscape:window-x="-11"
     inkscape:window-y="-11"
     inkscape:window-maximized="1"
     inkscape:current-layer="layer1" /><defs
     id="defs1" /><g
     inkscape:label="Layer 1"
     inkscape:groupmode="layer"
     id="layer1"
     transform="translate(54.536043,-1.1876528)"><g
       id="g2"><path
         style="fill:#000000;stroke-width:0.999997"
         d="m -14.187842,102.84358 c -2.828331,-0.66981 -6.813787,-2.07499 -9.947181,-3.507129 -2.99611,-1.369373 -12.835721,-6.642979 -16.587931,-8.89038 -2.895425,-1.734226 -3.951037,-2.479947 -5.352353,-3.781058 -3.60987,-3.351635 -6.355212,-7.839648 -7.47513,-12.220085 -0.739758,-2.893503 -0.80916,-4.782417 -0.850988,-23.157452 -0.01728,-8.050722 -0.06796,-15.044316 -0.109796,-15.54133 -0.0963,-1.136912 0.102819,-4.270747 0.335444,-5.2735 0.261427,-1.126504 1.254888,-3.701436 2.031551,-5.264622 0.911933,-1.835492 1.933701,-3.349232 3.227882,-4.782138 3.184713,-3.526059 6.90023,-6.087457 15.272699,-10.5287445 0.630849,-0.3346462 1.869568,-1.0068508 2.752699,-1.4938161 4.354997,-2.4012909 9.903097,-5.0549227 12.347699,-5.9058292 1.686148,-0.5868937 3.71918,-1.0774376 5.109476,-1.2328036 1.099348,-0.122832 1.340625,-0.1117257 2.769695,0.1281528 1.745965,0.2930143 4.055377,1.0025146 6.086748,1.870047 2.211303,0.9443769 12.299681,6.1309368 16.834697,8.6549266 2.354109,1.3102 5.595977,3.216824 6.572476,3.865433 2.443948,1.623312 4.903364,4.139501 6.631253,6.784361 1.968152,3.012658 3.232584,6.651992 3.434601,9.885682 0.04656,0.746329 0.05256,3.137625 0.01327,5.313987 -0.109329,6.043585 -0.10414,20.622748 0.0087,26.78155 0.121109,6.542474 0.06317,7.299784 -0.787889,10.241276 -0.651272,2.251425 -1.584602,4.378329 -3.080806,7.020495 -1.729197,3.053564 -3.909564,5.307601 -7.424639,7.675471 -3.009483,2.027288 -5.886872,3.618801 -13.075383,7.23226 -7.057938,3.547826 -10.544211,4.978836 -14.793295,6.072216 -1.652604,0.42523 -2.334072,0.43447 -3.944467,0.0532 z m 3.884557,-6.540312 c 3.009623,-0.665299 5.645696,-1.760659 10.781479,-4.479987 12.901168,-6.830962 16.225072,-9.138867 18.897263,-13.121094 1.412421,-2.104804 2.664821,-5.233033 3.121794,-7.797244 0.233493,-1.311137 0.236154,-1.571106 0.205632,-19.899781 l -0.03062,-18.57128 -0.258765,-0.917569 C 21.790364,29.307037 20.761378,27.201069 19.289313,25.122268 17.362976,22.401913 14.554809,20.338287 7.934408,16.777919 7.082773,16.319909 5.766674,15.597002 5.009661,15.171419 0.259395,12.500822 -4.282971,10.138975 -6.216498,9.3342688 -10.799952,7.4266806 -13.880926,7.3808659 -18.412927,9.1529135 c -1.066638,0.4170436 -8.875973,4.2312355 -9.265805,4.5255535 -0.06317,0.04788 -1.456684,0.796487 -3.096828,1.664152 -6.024237,3.186891 -8.755078,4.938515 -11.51963,7.388959 -2.001048,1.773696 -3.959362,4.78817 -5.107681,7.862331 -0.860793,2.304308 -0.806505,0.863754 -0.806505,21.395679 v 18.408738 l 0.302787,1.261639 c 0.972797,4.054203 3.182145,7.841056 6.041712,10.355682 2.976727,2.617649 5.099324,3.946834 12.006958,7.518885 9.179368,4.746797 11.644147,5.870598 14.901517,6.794183 1.241775,0.352139 1.486359,0.386257 2.360259,0.329528 0.536214,-0.03462 1.568434,-0.194593 2.293905,-0.354928 z m -3.26883,-5.210867 c -0.921343,-0.154886 -2.537095,-0.651867 -3.957014,-1.216882 -4.220062,-1.679331 -16.525799,-8.474704 -19.532495,-10.786088 -1.925857,-1.480463 -3.767317,-3.683786 -4.675594,-5.59432 -1.017927,-2.141322 -1.027952,-2.222616 -1.141963,-9.290395 -0.05523,-3.406479 -0.132875,-6.601756 -0.172975,-7.100638 l -0.07316,-0.907036 5.513942,0.0816 5.513949,0.08153 0.461663,-0.722987 c 0.253976,-0.397625 0.963298,-1.724158 1.576285,-2.947844 l 1.114595,-2.224902 0.486009,1.020589 c 1.226706,2.575843 2.50081,6.005452 3.474687,9.353308 0.305383,1.050357 0.636905,2.06705 0.736363,2.259319 0.234353,0.453488 0.740318,0.827909 1.705371,1.262317 l 0.778871,0.350607 0.414318,-0.647612 c 1.417784,-2.216331 2.292338,-5.116392 3.364292,-11.155939 0.31935,-1.797864 0.732701,-3.914001 0.919123,-4.702533 0.186475,-0.78854 0.545598,-2.698236 0.798267,-4.243766 0.738931,-4.521005 1.050343,-6.228171 1.203001,-6.595025 l 0.143313,-0.344089 0.0671,0.401415 c 0.03922,0.220792 0.09803,1.020796 0.135936,1.777786 0.09191,1.844823 0.307111,4.660736 0.916809,11.985751 0.614894,7.387176 0.810687,10.253446 1.030079,15.082536 0.292749,6.446683 1.001071,11.322924 1.762927,12.139368 0.399084,0.427817 0.838561,0.649274 1.288164,0.649274 0.277055,0 0.480559,-0.117113 0.846499,-0.487471 0.398224,-0.402879 0.575854,-0.74611 1.02503,-1.978527 0.770607,-2.114122 1.53385,-4.876082 2.476805,-8.962247 1.440476,-6.242224 1.82774,-7.65881 3.09997,-11.33897 0.26182,-0.756991 0.836867,-2.537497 1.278193,-3.956703 0.441312,-1.419186 0.825234,-2.603216 0.853202,-2.631187 0.10368,-0.103745 0.381201,0.297803 0.609971,0.882748 0.129813,0.33172 0.49612,1.467196 0.81443,2.523305 0.318489,1.05611 0.763196,2.29996 0.988611,2.764121 0.520653,1.072018 1.465102,2.037902 2.464125,2.519907 1.165135,0.562154 1.097908,0.594941 1.717297,-0.837559 0.459141,-1.061883 0.595011,-1.275665 0.868584,-1.367281 0.389045,-0.13028 8.21258,-0.152426 9.45244,-0.02727 l 0.869938,0.08818 -0.03922,4.723209 c -0.04723,5.426358 -0.170781,7.853439 -0.500436,9.848939 -0.207826,1.258726 -0.307117,1.56129 -0.9142,2.788294 -0.837261,1.691971 -1.526693,2.62767 -3.089384,4.192877 -2.063608,2.067017 -4.354377,3.633136 -8.431499,5.764336 -1.326464,0.693382 -3.392433,1.797499 -4.590992,2.453608 -4.104616,2.246854 -7.195481,3.679219 -10.007823,4.637755 -1.725668,0.58816 -2.310153,0.657856 -3.641026,0.434001 z m 4.491701,-26.853396 c -0.03922,-0.586628 -0.203037,-3.466558 -0.362045,-6.39991 -0.327601,-6.056287 -0.409062,-7.157267 -0.804551,-10.838798 -0.344616,-3.208617 -0.521586,-5.204841 -0.976365,-11.010835 -0.192592,-2.460233 -0.477424,-5.728863 -0.632777,-7.263625 -0.155086,-1.534757 -0.283171,-2.876699 -0.284038,-2.9821 -0.004,-0.382795 -0.216938,-0.502368 -1.387242,-0.777526 -0.655395,-0.15409 -1.281768,-0.308045 -1.391864,-0.342162 -0.217865,-0.0675 -0.598065,0.667677 -1.458732,2.820523 -1.540293,3.852684 -2.253477,6.732841 -4.472924,18.064649 -0.73044,3.729413 -1.469017,6.967173 -2.012908,8.824205 -0.191658,0.655259 -0.204765,0.670316 -0.343289,0.401416 -0.07927,-0.153557 -0.566276,-1.621298 -1.082719,-3.261449 -1.33709,-4.246558 -2.178493,-6.11866 -3.344769,-7.442273 -0.593809,-0.673894 -1.051997,-0.893615 -1.603899,-0.769134 -0.996582,0.224782 -1.276278,0.581573 -2.57186,3.28088 -0.605182,1.260888 -1.469237,3.028007 -1.92006,3.926936 l -0.819699,1.634418 h -1.785565 c -1.672514,0 -4.728401,-0.147372 -6.02537,-0.290488 l -0.573466,-0.06318 V 42.32104 32.89148 l 0.54307,-1.124389 c 1.010743,-2.092461 2.631631,-4.195511 4.314344,-5.597845 1.641238,-1.367765 4.228172,-3.004238 8.619361,-5.4526 6.249478,-3.484487 11.811566,-6.110879 14.451694,-6.824037 1.353258,-0.365504 3.24365,-0.369028 4.501419,-0.008 2.676193,0.767418 6.077697,2.444804 11.574951,5.707968 1.002251,0.594941 2.659644,1.528099 3.683067,2.073681 4.409225,2.350522 5.915321,3.29301 7.844313,4.908921 1.853366,1.552552 3.804009,3.86806 4.597654,5.457734 l 0.314961,0.630853 -0.03462,9.460857 c -0.02194,5.203471 -0.05389,9.477742 -0.07408,9.498385 -0.02195,0.02062 -1.578366,0.08479 -3.461575,0.14265 -3.805403,0.116913 -7.956149,0.32221 -8.430765,0.417177 -0.270998,0.05453 -0.338966,0.0037 -0.550381,-0.411059 C 4.825983,51.511681 4.277823,49.996324 3.740341,48.404335 2.3531,44.295312 1.421651,42.445822 0.347736,41.667877 c -0.637499,-0.461802 -1.108286,-0.45668 -1.648862,0.01796 -0.517665,0.454486 -0.781926,0.979844 -1.577453,3.135797 -1.677656,4.546562 -3.328473,10.070462 -5.364332,17.949943 -0.334184,1.293208 -0.642295,2.392512 -0.684823,2.442908 -0.04389,0.05055 -0.110197,-0.388313 -0.150764,-0.974908 z"
         id="path1" /><text
         xml:space="preserve"
         style="font-size:52.9167px;font-family:'JetBrains Mono';-inkscape-font-specification:'JetBrains Mono';text-align:center;text-anchor:middle;fill:#000000;fill-rule:evenodd;stroke:none;stroke-width:0.264999;stroke-linecap:round;stroke-linejoin:round"
         x="118.11618"
         y="68.483612"
         id="text1"><tspan
           sodipodi:role="line"
           id="tspan1"
           x="118.11617"
           y="68.483612"
           style="font-style:normal;font-variant:normal;font-weight:bold;font-stretch:normal;font-size:52.9167px;font-family:'Courier New';-inkscape-font-specification:'Courier New';fill:#000000;stroke:none;stroke-width:0.265">Pulso</tspan></text></g></g></svg>
