<?xml version="1.0" encoding="UTF-8" standalone="no"?>
<!-- Created with Inkscape (http://www.inkscape.org/) -->

<svg
   width="125.18822mm"
   height="152.82051mm"
   viewBox="0 0 125.18822 152.82051"
   version="1.1"
   id="svg1"
   xml:space="preserve"
   inkscape:version="1.3 (0e150ed6c4, 2023-07-21)"
   sodipodi:docname="logo_pulso_icon.svg"
   xmlns:inkscape="http://www.inkscape.org/namespaces/inkscape"
   xmlns:sodipodi="http://sodipodi.sourceforge.net/DTD/sodipodi-0.dtd"
   xmlns="http://www.w3.org/2000/svg"
   xmlns:svg="http://www.w3.org/2000/svg"><sodipodi:namedview
     id="namedview1"
     pagecolor="#ffffff"
     bordercolor="#999999"
     borderopacity="1"
     inkscape:showpageshadow="2"
     inkscape:pageopacity="0"
     inkscape:pagecheckerboard="0"
     inkscape:deskcolor="#d1d1d1"
     inkscape:document-units="mm"
     inkscape:zoom="1"
     inkscape:cx="223.5"
     inkscape:cy="294.5"
     inkscape:window-width="3440"
     inkscape:window-height="1417"
     inkscape:window-x="-8"
     inkscape:window-y="-8"
     inkscape:window-maximized="1"
     inkscape:current-layer="layer1" /><defs
     id="defs1" /><g
     inkscape:label="Layer 1"
     inkscape:groupmode="layer"
     id="layer1"
     transform="translate(-88.422548,24.256406)"><path
       style="fill:#000000;stroke-width:0.999995"
       d="m 148.91394,128.14962 c -4.24033,-1.00421 -10.21546,-3.1109 -14.91315,-5.25801 -4.49187,-2.05301 -19.24375,-9.95938 -24.86919,-13.32876 -4.34092,-2.60001 -5.92353,-3.71802 -8.02443,-5.66869 C 95.69513,98.869274 91.579222,92.140693 89.9002,85.573393 88.791128,81.235354 88.687077,78.40343 88.624372,50.854953 88.598449,38.785037 88.522475,28.300003 88.459761,27.554862 c -0.144372,-1.704497 0.154143,-6.402848 0.502909,-7.90621 0.391938,-1.688893 1.881372,-5.549318 3.04577,-7.8929 1.367196,-2.7518318 2.899065,-5.0212835 4.839352,-7.1695445 4.774628,-5.28638732 10.345058,-9.1265224 22.897348,-15.7850515 0.94579,-0.501713 2.80292,-1.509505 4.12694,-2.23958 6.52916,-3.600097 14.84706,-7.578512 18.51209,-8.85422 2.52793,-0.879891 5.57592,-1.615331 7.6603,-1.848261 1.64818,-0.184154 2.00991,-0.167503 4.15242,0.192131 2.61761,0.439297 6.07996,1.503004 9.12546,2.803638 3.31526,1.415842 18.4401,9.191709 25.23915,12.9757603 3.52936,1.9642964 8.38968,4.8227718 9.85368,5.7951888 3.66405,2.43372473 7.35129,6.2060807 9.9418,10.1713448 2.95072,4.5166791 4.8464,9.9728931 5.14927,14.8209501 0.0698,1.118923 0.0788,4.704034 0.0199,7.96691 -0.16391,9.060748 -0.15613,30.918326 0.013,40.151811 0.18157,9.8087 0.0947,10.944084 -1.18123,15.35407 -0.97641,3.375412 -2.37569,6.564139 -4.61885,10.525365 -2.59247,4.578006 -5.86135,7.957336 -11.13127,11.507326 -4.51192,3.03938 -8.8258,5.42543 -19.60306,10.84285 -10.5815,5.31902 -15.80824,7.46444 -22.17861,9.10368 -2.47764,0.63751 -3.49932,0.65137 -5.91368,0.0798 z m 5.82386,-9.80546 c 4.51213,-0.99744 8.46422,-2.63964 16.16396,-6.71655 19.34187,-10.24121 24.32518,-13.7013 28.33142,-19.67159 2.11755,-3.155594 3.99519,-7.84554 4.6803,-11.689893 0.35006,-1.965702 0.35405,-2.355456 0.30829,-29.834429 l -0.0459,-27.842694 -0.38795,-1.375651 c -0.93423,-3.312221 -2.47692,-6.46956 -4.68389,-9.58617 -2.88803,-4.0784486 -7.09813,-7.1723061 -17.02366,-12.51013096 -1.2768,-0.68666424 -3.24994,-1.77047104 -4.38488,-2.40851944 -7.12176,-4.0038497 -13.93183,-7.5448116 -16.83064,-8.7512546 -6.87167,-2.859921 -11.49077,-2.928608 -18.2853,-0.271894 -1.59914,0.625246 -13.30716,6.3436127 -13.89161,6.7848645 -0.0947,0.071787 -2.18391,1.1941198 -4.64287,2.4949532 -9.03174,4.7778948 -13.12591,7.4039892 -17.27062,11.0777774 -3.00004,2.6591859 -5.93601,7.1785879 -7.657615,11.7874739 -1.290524,3.454697 -1.209135,1.29497 -1.209135,32.07713 v 27.599006 l 0.453954,1.891493 c 1.458446,6.078199 4.770776,11.755577 9.057936,15.52559 4.46281,3.924468 7.64508,5.917228 18.00124,11.272568 13.76202,7.11656 17.4573,8.8014 22.34086,10.18607 1.86171,0.52794 2.2284,0.57909 3.53858,0.49404 0.80391,-0.0519 2.35145,-0.29174 3.4391,-0.53212 z m -4.90074,-7.81231 c -1.38131,-0.23221 -3.8037,-0.9773 -5.93249,-1.82439 -6.32686,-2.51771 -24.77604,-12.705565 -29.28378,-16.170871 -2.88731,-2.21956 -5.64809,-5.522856 -7.00981,-8.387194 -1.52611,-3.210343 -1.54114,-3.332221 -1.71207,-13.928476 -0.0828,-5.107109 -0.19921,-9.897577 -0.25933,-10.645519 l -0.10968,-1.359859 8.26669,0.122338 8.2667,0.122237 0.69214,-1.083926 c 0.38077,-0.596133 1.44421,-2.584917 2.36322,-4.419508 l 1.67104,-3.33565 0.72864,1.530103 c 1.83912,3.861791 3.7493,9.003577 5.20937,14.022797 0.45784,1.574731 0.95487,3.098992 1.10398,3.387247 0.35135,0.679885 1.10991,1.24123 2.55675,1.89251 l 1.16771,0.525641 0.62116,-0.970921 c 2.12559,-3.322799 3.43675,-7.670669 5.04386,-16.725364 0.47878,-2.695419 1.09849,-5.868003 1.37798,-7.050198 0.27957,-1.182205 0.81798,-4.045287 1.19679,-6.362398 1.10783,-6.778044 1.57471,-9.337486 1.80358,-9.887486 l 0.21486,-0.51587 0.1006,0.601815 c 0.0588,0.331019 0.14697,1.530413 0.2038,2.665318 0.13779,2.765821 0.46043,6.987534 1.37451,17.969446 0.92187,11.075105 1.21541,15.372315 1.54433,22.612251 0.4389,9.665086 1.50084,16.975712 2.64304,18.199753 0.59832,0.641398 1.2572,0.973414 1.93126,0.973414 0.41537,0 0.72047,-0.17558 1.2691,-0.730834 0.59703,-0.604009 0.86334,-1.118593 1.53676,-2.966275 1.15532,-3.169563 2.2996,-7.310387 3.71331,-13.436505 2.15961,-9.358554 2.74021,-11.482348 4.64758,-16.99977 0.39253,-1.134906 1.25466,-3.804301 1.91631,-5.932023 0.66163,-2.127692 1.23722,-3.90283 1.27915,-3.944765 0.15544,-0.155539 0.57151,0.446476 0.91449,1.323446 0.19462,0.497326 0.7438,2.199669 1.22102,3.783024 0.47749,1.583356 1.14421,3.448178 1.48216,4.144064 0.78058,1.607206 2.19653,3.055292 3.6943,3.77793 1.74681,0.842801 1.64602,0.891956 2.57463,-1.255697 0.68836,-1.59201 0.89206,-1.91252 1.30221,-2.049873 0.58327,-0.195321 12.31258,-0.228522 14.17142,-0.04088 l 1.30424,0.132208 -0.0588,7.081196 c -0.0708,8.135381 -0.25604,11.774143 -0.75027,14.765864 -0.31158,1.887125 -0.46044,2.34074 -1.3706,4.180306 -1.25525,2.53666 -2.28887,3.939491 -4.63171,6.286104 -3.09383,3.098942 -6.52823,5.446921 -12.64079,8.642088 -1.98868,1.039542 -5.08605,2.694872 -6.88297,3.678532 -6.15378,3.36856 -10.78771,5.51601 -15.00407,6.95308 -2.58718,0.88179 -3.46346,0.98628 -5.45875,0.65067 z m 6.73411,-40.259524 c -0.0588,-0.879492 -0.3044,-5.197181 -0.54279,-9.594963 -0.49115,-9.079791 -0.61328,-10.730418 -1.20621,-16.249894 -0.51666,-4.810468 -0.78198,-7.803275 -1.4638,-16.507819 -0.28874,-3.688464 -0.71577,-8.588906 -0.94868,-10.889874 -0.23251,-2.300959 -0.42454,-4.312844 -0.42584,-4.470865 -0.006,-0.573899 -0.32524,-0.753167 -2.0798,-1.165694 -0.98259,-0.231016 -1.92167,-0.461831 -2.08673,-0.51298 -0.32663,-0.1012 -0.89664,1.001003 -2.18698,4.228624 -2.30926,5.776075 -3.37849,10.094104 -6.70596,27.083136 -1.0951,5.591263 -2.2024,10.445422 -3.01782,13.229548 -0.28734,0.982387 -0.30699,1.00496 -0.51467,0.601816 -0.11885,-0.230218 -0.84898,-2.430704 -1.62325,-4.889674 -2.00461,-6.366585 -3.26607,-9.173304 -5.01459,-11.15771 -0.89026,-1.010325 -1.57719,-1.339738 -2.40462,-1.153112 -1.49411,0.337001 -1.91344,0.871915 -3.85582,4.918807 -0.90731,1.890366 -2.20273,4.539691 -2.87862,5.887396 l -1.22892,2.450375 h -2.67698 c -2.50749,0 -7.08898,-0.220945 -9.03344,-0.435509 l -0.85976,-0.09472 V 37.412168 23.27505 l 0.81419,-1.685722 c 1.51534,-3.137089 3.94543,-6.290052 6.46821,-8.392479 2.4606,-2.0506 6.33902,-4.5040564 12.92244,-8.1747239 9.36943,-5.22406207 17.7083,-9.1616382 21.66647,-10.2308284 2.02885,-0.5479754 4.86299,-0.5532597 6.74868,-0.011965 4.01224,1.1505389 9.11189,3.6653333 17.35356,8.5575791 1.50261,0.8919556 3.98743,2.2909779 5.52178,3.1089329 6.61046,3.5239824 8.86845,4.9369933 11.76046,7.3596213 2.77863,2.327639 5.7031,5.799127 6.89296,8.182421 l 0.4722,0.945796 -0.0519,14.184039 c -0.0329,7.801221 -0.0808,14.209353 -0.11107,14.240301 -0.0329,0.03091 -2.36634,0.127123 -5.18971,0.213866 -5.70519,0.17528 -11.92813,0.483068 -12.63969,0.625446 -0.40629,0.08176 -0.50819,0.0056 -0.82515,-0.616273 -0.19921,-0.389944 -1.02103,-2.661819 -1.82684,-5.048583 -2.0798,-6.160386 -3.47626,-8.933205 -5.08631,-10.099527 -0.95576,-0.692348 -1.66158,-0.68467 -2.47203,0.02692 -0.7761,0.68138 -1.17229,1.469015 -2.36497,4.701293 -2.5152,6.816361 -4.99016,15.097979 -8.04239,26.911165 -0.50102,1.938822 -0.96295,3.586935 -1.02671,3.662491 -0.0658,0.07578 -0.16521,-0.582173 -0.22603,-1.461616 z"
       id="path1" /></g></svg>
